<svg id="Livello_2" data-name="Livello 2" xmlns="http://www.w3.org/2000/svg" viewBox="0 0 2185.13 460.6"><defs><style>.cls-1{fill:#fff;}.cls-2{fill:#f37021;}</style></defs><rect class="cls-1" x="13.3" y="21.18" width="470.99" height="336.63" rx="35.46"/><path class="cls-2" d="M223.27,368.7,95.07,244.91c-22.91-22.12-61.13-5.87-61.13,26V551.51Z" transform="translate(-21.71 -198.49)"/><path class="cls-2" d="M319.94,371.05,467,228.66c15.18-14.7,40.5-3.91,40.5,17.26V552.67Z" transform="translate(-21.71 -198.49)"/><path d="M46.4,555.46a6.65,6.65,0,0,1-4.87-11.19L215.05,358.15a6.65,6.65,0,1,1,9.73,9.06L51.26,553.35A6.63,6.63,0,0,1,46.4,555.46Z" transform="translate(-21.71 -198.49)"/><path d="M494.61,555.46a6.65,6.65,0,0,1-4.86-2.11L316.22,367.21a6.65,6.65,0,1,1,9.73-9.06L499.48,544.27a6.65,6.65,0,0,1-4.87,11.19Z" transform="translate(-21.71 -198.49)"/><path class="cls-1" d="M270.5,412.16a9,9,0,0,1-4.18-1.23L51.64,271.8A32,32,0,0,1,69,213H472a32,32,0,0,1,17.39,58.78L274.73,410.9A9,9,0,0,1,270.5,412.16Z" transform="translate(-21.71 -198.49)"/><path d="M485,208.57a39.32,39.32,0,0,0-9.22-1.9c-.36,0-.74-.06-1.11-.09-.91-.06-1.79-.21-2.72-.21H69c-.93,0-1.81.15-2.73.21-.36,0-.73,0-1.09.09a39.66,39.66,0,0,0-9.26,1.91,48.85,48.85,0,0,0-34.23,46.55V520.84a48.81,48.81,0,0,0,48.76,48.75H470.54a48.81,48.81,0,0,0,48.76-48.75V255.13A48.84,48.84,0,0,0,485,208.57ZM58.79,221.8a35.06,35.06,0,0,1,11.68-2.13H470.54a35,35,0,0,1,11.66,2.12c17.17,7.4,21.52,32.78,3.55,44.43L271.12,405.33a1.15,1.15,0,0,1-.62.18,1.11,1.11,0,0,1-.61-.18L55.26,266.22C37.29,254.57,41.63,229.2,58.79,221.8ZM470.54,556.3H70.47A35.46,35.46,0,0,1,35,520.84V263.53a39,39,0,0,0,13,13.85l214.63,139.1a14.43,14.43,0,0,0,15.68,0L493,277.38a39,39,0,0,0,13-13.86V520.84A35.47,35.47,0,0,1,470.54,556.3Z" transform="translate(-21.71 -198.49)"/><path d="M573.21,218.09a16.81,16.81,0,0,1,7.11,1.71,17.58,17.58,0,0,1,6.12,4.66L721.68,427.32l-13.23-.49L844.18,224.46q5.39-7.35,13.23-6.37a13.73,13.73,0,0,1,10.05,4.16,14.31,14.31,0,0,1,4.16,10.54v313.6A13.76,13.76,0,0,1,867,556.68a15.53,15.53,0,0,1-11,4.41,14.66,14.66,0,0,1-10.78-4.41,14.1,14.1,0,0,1-4.41-10.29V262.68l8.82,1-124,187.67A10.65,10.65,0,0,1,721,456a13.58,13.58,0,0,1-13.23,0,14.07,14.07,0,0,1-5.15-4.65L578.11,261.7l9.31-6.37V546.39a14.54,14.54,0,0,1-4.16,10.29,13.9,13.9,0,0,1-10.54,4.41,13.1,13.1,0,0,1-10.29-4.41,15,15,0,0,1-3.92-10.29V232.79a14.83,14.83,0,0,1,4.17-10A13.51,13.51,0,0,1,573.21,218.09Z" transform="translate(-21.71 -198.49)"/><path d="M1142.59,306.29a13.87,13.87,0,0,1,10.53,4.41,14.55,14.55,0,0,1,4.17,10.29V537.08q0,39.69-15.68,66.88t-42.14,41.16q-26.46,14-60.27,14a154.52,154.52,0,0,1-39-4.66q-17.9-4.66-29.15-11.51a23.49,23.49,0,0,1-8.82-8.58,11,11,0,0,1-.49-10.53q2.44-6.87,7.59-9.07a12.51,12.51,0,0,1,10.54.25q8.33,4.41,24,10.78t35.77,6.37q26.94,0,46.55-11.27t30.62-32.59q11-21.31,11-50.71V502.29l3.43,12.25A84.84,84.84,0,0,1,1110.25,541a105.34,105.34,0,0,1-30.87,18.37,101.29,101.29,0,0,1-36.75,6.62q-29.4,0-48.76-12A73.89,73.89,0,0,1,965,520.91q-9.56-21.06-9.55-49.49V321a14.64,14.64,0,0,1,15.19-14.7,13.87,13.87,0,0,1,10.53,4.41A14.55,14.55,0,0,1,985.3,321V467q0,34.31,14.94,52.92T1049,538.55a76.86,76.86,0,0,0,38.71-10A86.38,86.38,0,0,0,1116.62,502q11.27-16.41,11.27-35V321a15,15,0,0,1,3.92-10.29Q1135.73,306.29,1142.59,306.29Z" transform="translate(-21.71 -198.49)"/><path d="M1390,218.09a16.85,16.85,0,0,1,7.11,1.71,17.58,17.58,0,0,1,6.12,4.66L1538.5,427.32l-13.23-.49L1661,224.46q5.38-7.35,13.23-6.37a13.73,13.73,0,0,1,10,4.16,14.31,14.31,0,0,1,4.16,10.54v313.6a13.76,13.76,0,0,1-4.65,10.29,15.53,15.53,0,0,1-11,4.41,14.66,14.66,0,0,1-10.78-4.41,14.1,14.1,0,0,1-4.41-10.29V262.68l8.82,1-124,187.67a10.65,10.65,0,0,1-4.65,4.65,13.58,13.58,0,0,1-13.23,0,14,14,0,0,1-5.15-4.65L1394.93,261.7l9.31-6.37V546.39a14.54,14.54,0,0,1-4.16,10.29,13.9,13.9,0,0,1-10.54,4.41,13.1,13.1,0,0,1-10.29-4.41,15,15,0,0,1-3.92-10.29V232.79a14.83,14.83,0,0,1,4.17-10A13.51,13.51,0,0,1,1390,218.09Z" transform="translate(-21.71 -198.49)"/><path d="M1978,310.7a13.87,13.87,0,0,1,10.53,4.41,15.16,15.16,0,0,1,4.17,10.78v220.5a15.07,15.07,0,0,1-14.7,14.7q-6.87,0-10.78-4.41a15,15,0,0,1-3.92-10.29V488.08l8.33-3.43q0,13.23-7.6,27.68a96.09,96.09,0,0,1-20.82,26.46,109.42,109.42,0,0,1-31.12,19.6,97.44,97.44,0,0,1-38.46,7.6q-33.33,0-59.54-17.15t-41.16-47q-15-29.88-14.94-67.13,0-38.22,15.19-67.38t41.16-45.81q26-16.65,58.31-16.66a105.22,105.22,0,0,1,39.44,7.35,102.83,102.83,0,0,1,32.1,20.09,96.11,96.11,0,0,1,21.56,29.15,78.27,78.27,0,0,1,7.84,34.06l-10.29-7.35V325.89a15.63,15.63,0,0,1,3.92-10.78Q1971.17,310.7,1978,310.7ZM1876.11,538.55q26,0,46.06-13.48t31.6-37.24q11.51-23.76,11.52-53.16,0-28.41-11.52-51.7t-31.6-36.75q-20.1-13.47-46.06-13.47-25.48,0-45.82,13t-31.85,36q-11.52,23-11.51,52.92,0,29.4,11.51,53.16t31.61,37.24Q1850.14,538.55,1876.11,538.55Z" transform="translate(-21.71 -198.49)"/><path d="M2083.37,273.46q-10.29,0-15.43-4.66t-5.15-13.47v-4.9q0-8.82,5.64-13.48t15.43-4.65q9.3,0,14.46,4.65t5.14,13.48v4.9q0,8.82-5.14,13.47T2083.37,273.46Zm14.7,272.93a15.07,15.07,0,0,1-14.7,14.7q-6.87,0-10.78-4.41a15,15,0,0,1-3.92-10.29V321a14.54,14.54,0,0,1,4.16-10.29,14.8,14.8,0,0,1,21.08,0,14.54,14.54,0,0,1,4.16,10.29Z" transform="translate(-21.71 -198.49)"/><path d="M2206.84,546.39a15.07,15.07,0,0,1-14.7,14.7,13.86,13.86,0,0,1-10.53-4.41,14.5,14.5,0,0,1-4.16-10.29V213.19a15.05,15.05,0,0,1,14.69-14.7,13.88,13.88,0,0,1,10.54,4.41,14.54,14.54,0,0,1,4.16,10.29Z" transform="translate(-21.71 -198.49)"/></svg>