<svg xmlns="http://www.w3.org/2000/svg" viewBox="0 0 805.32 805.42"><defs><style>.cls-1{fill:#9d9d9c;}.cls-1,.cls-2,.cls-3,.cls-4,.cls-5{stroke:#1d1d1b;stroke-miterlimit:10;}.cls-1,.cls-2{stroke-width:3px;}.cls-2,.cls-6{fill:#fff;}.cls-3,.cls-7{fill:#c55c1b;}.cls-3,.cls-4,.cls-5{stroke-width:9px;}.cls-4,.cls-9{fill:#ee7026;}.cls-8{fill:#8d4014;}.cls-10{fill:#010101;}</style></defs><g id="Gear"><circle class="cls-1" cx="402.59" cy="402.66" r="365.98"/><circle class="cls-2" cx="402.59" cy="402.66" r="347.69"/><circle class="cls-1" cx="402.59" cy="402.66" r="69.54"/><rect class="cls-1" x="396.53" y="54.97" width="12.12" height="278.23"/><rect class="cls-1" x="1911.05" y="775.72" width="12.12" height="278.23" transform="translate(-158.61 -1747.31) rotate(45)"/><rect class="cls-1" x="1972.19" y="923.21" width="12.12" height="278.23" transform="translate(1673.57 -1575.59) rotate(90)"/><rect class="cls-1" x="1911.25" y="1070.74" width="12.12" height="278.23" transform="translate(2761.56 49.94) rotate(135)"/><rect class="cls-1" x="1763.76" y="1131.96" width="12.12" height="278.23" transform="translate(2172.65 1882.5) rotate(180)"/><rect class="cls-1" x="1616.19" y="1070.96" width="12.12" height="278.23" transform="translate(546.7 2553.17) rotate(-135)"/><rect class="cls-1" x="1554.86" y="923.49" width="12.12" height="278.23" transform="translate(-868.68 1963.87) rotate(-90)"/><rect class="cls-1" x="1615.88" y="775.9" width="12.12" height="278.23" transform="translate(-1538.96 755.23) rotate(-45)"/><path class="cls-1" d="M1794.34,661.29l-44.18,4.43q-5.39,15.87-10.75,31.74c9.16-.79,19.1-1.28,29.74-1.3,11,0,21.23.49,30.63,1.3Z" transform="translate(-1367 -659.66)"/><path class="cls-1" d="M1744.86,661.29l49.43-.12,5.49,36.29c-9.15-.79-19.1-1.28-29.74-1.3-11,0-21.22.49-30.63,1.3Z" transform="translate(-1367 -659.66)"/><path class="cls-1" d="M2070.69,796.24l-34.36-28.11-30,14.85c7,5.91,14.42,12.59,22,20.11,7.77,7.75,14.66,15.35,20.74,22.58Z" transform="translate(-1367 -659.66)"/><path class="cls-1" d="M2035.71,761.25l35,34.87L2049,825.67c-5.92-7-12.6-14.42-20.12-22-7.75-7.77-15.35-14.66-22.57-20.73Z" transform="translate(-1367 -659.66)"/><path class="cls-1" d="M2170.69,1087.07q-2.22-22.1-4.43-44.18l-31.75-10.75c.8,9.16,1.29,19.11,1.31,29.75,0,11-.49,21.22-1.31,30.63Z" transform="translate(-1367 -659.66)"/><path class="cls-1" d="M2170.69,1037.59l.12,49.43-36.3,5.5c.8-9.16,1.29-19.11,1.31-29.75,0-11-.49-21.22-1.31-30.63Z" transform="translate(-1367 -659.66)"/><path class="cls-1" d="M2035.79,1363.38,2063.9,1329l-14.85-30c-5.92,7-12.6,14.42-20.11,22-7.75,7.77-15.35,14.66-22.58,20.74Z" transform="translate(-1367 -659.66)"/><path class="cls-1" d="M2070.78,1328.39l-34.87,35-29.55-21.77c7-5.92,14.42-12.6,22-20.12,7.77-7.75,14.66-15.35,20.74-22.57Z" transform="translate(-1367 -659.66)"/><path class="cls-1" d="M1745.05,1463.45l44.18-4.43q5.37-15.87,10.75-31.75c-9.16.8-19.11,1.29-29.75,1.31-11,0-21.22-.49-30.63-1.31Z" transform="translate(-1367 -659.66)"/><path class="cls-1" d="M1794.53,1463.45l-49.43.12q-2.74-18.15-5.5-36.3c9.16.8,19.11,1.29,29.75,1.31,11,0,21.22-.49,30.63-1.31Z" transform="translate(-1367 -659.66)"/><path class="cls-1" d="M1468.8,1328.6l34.37,28.11,30-14.85c-7-5.91-14.42-12.6-22-20.11-7.77-7.75-14.66-15.35-20.74-22.58Z" transform="translate(-1367 -659.66)"/><path class="cls-1" d="M1503.79,1363.59l-35-34.87,21.78-29.55c5.92,7,12.6,14.42,20.11,21.95,7.75,7.78,15.35,14.66,22.58,20.74Z" transform="translate(-1367 -659.66)"/><path class="cls-1" d="M1368.64,1037.9q2.2,22.1,4.42,44.18l31.75,10.75c-.79-9.16-1.29-19.11-1.3-29.74,0-11,.49-21.23,1.3-30.63Z" transform="translate(-1367 -659.66)"/><path class="cls-1" d="M1368.64,1087.38l-.12-49.43,36.29-5.49c-.79,9.15-1.29,19.1-1.3,29.74,0,11,.49,21.22,1.3,30.63Z" transform="translate(-1367 -659.66)"/><path class="cls-1" d="M1503.35,761.52l-28.11,34.37,14.85,30c5.92-7,12.6-14.42,20.12-21.95,7.75-7.77,15.35-14.66,22.57-20.74Z" transform="translate(-1367 -659.66)"/><path class="cls-1" d="M1468.37,796.51l34.86-35,29.55,21.77c-7,5.92-14.42,12.6-22,20.12-7.77,7.75-14.66,15.35-20.74,22.57Z" transform="translate(-1367 -659.66)"/><path class="cls-1" d="M1643,681l-39.35,20.58q.94,16.74,1.87,33.47c8.2-4.15,17.25-8.32,27.11-12.3,10.18-4.11,19.88-7.46,28.91-10.22Z" transform="translate(-1367 -659.66)"/><path class="cls-1" d="M1597.08,699.47l45.82-18.54,18.63,31.62c-8.79,2.69-18.21,5.93-28.08,9.89-10.19,4.08-19.51,8.37-27.94,12.63Z" transform="translate(-1367 -659.66)"/><path class="cls-1" d="M1949.73,703.18l-42.37-13.27-22.34,25c8.73,2.87,18.07,6.32,27.86,10.48,10.11,4.29,19.33,8.78,27.67,13.21Z" transform="translate(-1367 -659.66)"/><path class="cls-1" d="M1904.22,683.76l45.51,19.29-9.18,35.53c-8.12-4.32-17.07-8.68-26.85-12.86-10.09-4.32-19.71-7.88-28.68-10.83Z" transform="translate(-1367 -659.66)"/><path class="cls-1" d="M2151,935.74l-20.58-39.34-33.47,1.87c4.15,8.2,8.32,17.24,12.3,27.11,4.11,10.18,7.46,19.87,10.22,28.9Z" transform="translate(-1367 -659.66)"/><path class="cls-1" d="M2132.52,889.83l18.54,45.82-31.62,18.63c-2.69-8.79-5.93-18.2-9.89-28.08-4.08-10.19-8.37-19.51-12.63-27.93Z" transform="translate(-1367 -659.66)"/><path class="cls-1" d="M2128.84,1242.43q6.63-21.2,13.27-42.37l-25-22.35c-2.86,8.74-6.31,18.08-10.47,27.87-4.3,10.1-8.78,19.33-13.22,27.66Z" transform="translate(-1367 -659.66)"/><path class="cls-1" d="M2148.26,1196.92,2129,1242.43l-35.54-9.19c4.32-8.11,8.68-17.06,12.87-26.85,4.32-10.09,7.88-19.71,10.82-28.68Z" transform="translate(-1367 -659.66)"/><path class="cls-1" d="M1896.39,1443.69l39.34-20.58q-.93-16.72-1.87-33.46c-8.2,4.15-17.24,8.32-27.11,12.3-10.18,4.1-19.87,7.46-28.9,10.21Z" transform="translate(-1367 -659.66)"/><path class="cls-1" d="M1942.3,1425.24l-45.82,18.55-18.63-31.63c8.79-2.68,18.2-5.93,28.08-9.88,10.19-4.08,19.51-8.37,27.93-12.63Z" transform="translate(-1367 -659.66)"/><path class="cls-1" d="M1589.78,1421.59l42.37,13.27,22.35-25c-8.74-2.86-18.08-6.31-27.87-10.47-10.1-4.3-19.33-8.78-27.66-13.22Z" transform="translate(-1367 -659.66)"/><path class="cls-1" d="M1635.29,1441l-45.51-19.29q4.59-17.78,9.19-35.54c8.11,4.32,17.06,8.68,26.85,12.87,10.09,4.32,19.71,7.88,28.68,10.82Z" transform="translate(-1367 -659.66)"/><path class="cls-1" d="M1388.44,1189.22l20.58,39.34,33.46-1.87c-4.15-8.2-8.32-17.25-12.3-27.11-4.1-10.18-7.46-19.88-10.21-28.91Z" transform="translate(-1367 -659.66)"/><path class="cls-1" d="M1406.89,1235.13q-9.27-22.92-18.55-45.82l31.63-18.64c2.68,8.8,5.93,18.21,9.88,28.09,4.08,10.19,8.37,19.51,12.63,27.93Z" transform="translate(-1367 -659.66)"/><path class="cls-1" d="M1410.37,882.53q-6.63,21.18-13.27,42.37l25,22.34c2.86-8.73,6.31-18.07,10.47-27.86,4.3-10.11,8.78-19.33,13.22-27.67Z" transform="translate(-1367 -659.66)"/><path class="cls-1" d="M1391,928l19.29-45.51,35.54,9.18c-4.32,8.12-8.68,17.07-12.87,26.85-4.32,10.09-7.88,19.71-10.82,28.68Z" transform="translate(-1367 -659.66)"/><circle class="cls-1" cx="402.62" cy="402.67" r="256.19"/><circle class="cls-2" cx="402.62" cy="402.67" r="243.38"/><circle class="cls-1" cx="402.62" cy="402.67" r="48.68"/><rect class="cls-1" x="1900.4" y="909.31" width="8.49" height="194.76" transform="translate(740.17 -1797.74) rotate(67.54)"/><rect class="cls-1" x="1900.34" y="1021.08" width="8.49" height="194.76" transform="translate(2300.59 -871.68) rotate(112.54)"/><rect class="cls-1" x="1821.28" y="1100.08" width="8.49" height="194.76" transform="translate(2603.09 946.85) rotate(157.54)"/><rect class="cls-1" x="1709.55" y="1100.12" width="8.49" height="194.76" transform="translate(1470.76 2300.73) rotate(-157.46)"/><rect class="cls-1" x="1630.49" y="1021.09" width="8.49" height="194.76" transform="translate(-141.22 2396.87) rotate(-112.46)"/><rect class="cls-1" x="1630.48" y="909.31" width="8.49" height="194.76" transform="translate(-1288.62 1471.1) rotate(-67.46)"/><rect class="cls-1" x="1709.48" y="830.19" width="8.49" height="194.76" transform="translate(-1591.39 65.55) rotate(-22.46)"/><rect class="cls-1" x="1821.27" y="830.19" width="8.49" height="194.76" transform="translate(-872.11 -1288.48) rotate(22.54)"/><path class="cls-1" d="M1840.84,790.24l-30.94-2.94-11.67,20.36c6.39.69,13.29,1.7,20.6,3.12,7.54,1.48,14.51,3.21,20.86,5Z" transform="translate(-1367 -659.66)"/><path class="cls-1" d="M1806.86,783.55l34,6.6q-.55,12.84-1.13,25.67c-6.18-1.78-13-3.47-20.25-4.92-7.54-1.49-14.64-2.53-21.21-3.24Z" transform="translate(-1367 -659.66)"/><path class="cls-1" d="M2012.4,920.29l-19.8-23.95L1970,902.47c4,5,8.2,10.61,12.36,16.78,4.29,6.38,8,12.53,11.19,18.32Z" transform="translate(-1367 -659.66)"/><path class="cls-1" d="M1993.1,891.53l19.35,28.69-19,17.35c-3.11-5.64-6.7-11.61-10.85-17.8-4.27-6.39-8.56-12.15-12.7-17.3Z" transform="translate(-1367 -659.66)"/><path class="cls-1" d="M2041.75,1133.56l2.94-30.94L2024.34,1091c-.7,6.39-1.7,13.29-3.13,20.6-1.48,7.54-3.21,14.51-5,20.86Z" transform="translate(-1367 -659.66)"/><path class="cls-1" d="M2048.44,1099.58l-6.6,34-25.67-1.13c1.78-6.18,3.47-13,4.92-20.25,1.49-7.54,2.53-14.64,3.25-21.21Z" transform="translate(-1367 -659.66)"/><path class="cls-1" d="M1911.74,1305.09l24-19.8q-3.06-11.32-6.13-22.64c-5,4-10.6,8.2-16.78,12.35-6.38,4.29-12.53,8-18.31,11.19Z" transform="translate(-1367 -659.66)"/><path class="cls-1" d="M1940.5,1285.8l-28.68,19.35-17.35-19c5.63-3.11,11.6-6.7,17.79-10.84,6.39-4.27,12.15-8.56,17.3-12.7Z" transform="translate(-1367 -659.66)"/><path class="cls-1" d="M1698.53,1334.51l30.94,2.93,11.67-20.35c-6.4-.69-13.3-1.7-20.6-3.13-7.55-1.47-14.51-3.2-20.87-5Z" transform="translate(-1367 -659.66)"/><path class="cls-1" d="M1732.51,1341.2l-34-6.6q.57-12.84,1.13-25.67c6.19,1.78,12.95,3.47,20.26,4.91,7.53,1.5,14.64,2.54,21.21,3.25Z" transform="translate(-1367 -659.66)"/><path class="cls-1" d="M1527,1204.54l19.8,24,22.65-6.13c-4-5-8.2-10.6-12.36-16.78-4.29-6.38-8-12.53-11.19-18.31Z" transform="translate(-1367 -659.66)"/><path class="cls-1" d="M1546.33,1233.3,1527,1204.61l19-17.34c3.11,5.63,6.7,11.6,10.84,17.79,4.28,6.39,8.57,12.15,12.71,17.3Z" transform="translate(-1367 -659.66)"/><path class="cls-1" d="M1497.54,991.34l-2.94,30.94L1515,1034c.69-6.39,1.69-13.29,3.12-20.6,1.48-7.54,3.21-14.51,5-20.86Z" transform="translate(-1367 -659.66)"/><path class="cls-1" d="M1490.85,1025.32l6.6-34,25.67,1.13c-1.78,6.18-3.47,13-4.92,20.25-1.49,7.54-2.53,14.64-3.24,21.21Z" transform="translate(-1367 -659.66)"/><path class="cls-1" d="M1627.44,819.73l-24,19.8q3.07,11.33,6.14,22.65c5-4,10.6-8.2,16.78-12.36,6.38-4.29,12.53-8,18.31-11.19Z" transform="translate(-1367 -659.66)"/><path class="cls-1" d="M1598.68,839l28.68-19.35,17.35,19c-5.63,3.11-11.6,6.7-17.79,10.85-6.39,4.27-12.15,8.56-17.3,12.7Z" transform="translate(-1367 -659.66)"/><path class="cls-1" d="M1734.22,783.33l-29.8,8.81-3.24,23.24c6.19-1.74,13-3.38,20.28-4.78,7.55-1.45,14.66-2.44,21.24-3.11Z" transform="translate(-1367 -659.66)"/><path class="cls-1" d="M1700.2,789.79l34-6.54,8.52,24.24c-6.4.65-13.31,1.61-20.63,3-7.55,1.43-14.53,3.11-20.89,4.9Z" transform="translate(-1367 -659.66)"/><path class="cls-1" d="M1941.91,840l-27.31-14.84-18.73,14.14c5.61,3.14,11.57,6.78,17.73,11,6.36,4.31,12.09,8.64,17.21,12.82Z" transform="translate(-1367 -659.66)"/><path class="cls-1" d="M1913.27,820.53l28.66,19.4q-5.57,11.58-11.12,23.17c-5-4.07-10.55-8.27-16.7-12.47-6.35-4.33-12.47-8.08-18.24-11.31Z" transform="translate(-1367 -659.66)"/><path class="cls-1" d="M2048.67,1027q-4.41-14.91-8.81-29.8l-23.24-3.25c1.74,6.2,3.38,13,4.78,20.29,1.44,7.54,2.44,14.66,3.11,21.23Z" transform="translate(-1367 -659.66)"/><path class="cls-1" d="M2042.21,992.93l6.54,34-24.24,8.52c-.66-6.4-1.61-13.31-3-20.62-1.43-7.55-3.11-14.53-4.9-20.9Z" transform="translate(-1367 -659.66)"/><path class="cls-1" d="M1992,1234.6l14.85-27.3-14.14-18.73c-3.15,5.61-6.78,11.56-11,17.73-4.31,6.35-8.64,12.08-12.81,17.21Z" transform="translate(-1367 -659.66)"/><path class="cls-1" d="M2011.49,1206l-19.4,28.65-23.16-11.11c4.06-5,8.27-10.55,12.47-16.7,4.33-6.35,8.07-12.47,11.31-18.24Z" transform="translate(-1367 -659.66)"/><path class="cls-1" d="M1805.14,1341.4l29.8-8.81,3.24-23.24c-6.19,1.74-13,3.38-20.28,4.78-7.55,1.45-14.66,2.44-21.23,3.11Z" transform="translate(-1367 -659.66)"/><path class="cls-1" d="M1839.16,1334.94l-34,6.54-8.52-24.24c6.4-.65,13.3-1.61,20.62-3,7.55-1.42,14.53-3.11,20.89-4.9Z" transform="translate(-1367 -659.66)"/><path class="cls-1" d="M1597.55,1284.77l27.3,14.84,18.73-14.14c-5.61-3.15-11.57-6.78-17.73-11-6.36-4.32-12.09-8.65-17.21-12.82Z" transform="translate(-1367 -659.66)"/><path class="cls-1" d="M1626.18,1304.25l-28.66-19.4q5.57-11.58,11.12-23.16c5,4.06,10.55,8.27,16.7,12.47,6.35,4.33,12.47,8.07,18.24,11.31Z" transform="translate(-1367 -659.66)"/><path class="cls-1" d="M1490.68,1097.94q4.41,14.91,8.81,29.8l23.24,3.25c-1.74-6.2-3.38-13-4.78-20.29-1.44-7.54-2.44-14.66-3.11-21.23Z" transform="translate(-1367 -659.66)"/><path class="cls-1" d="M1497.14,1132l-6.54-34,24.24-8.52c.65,6.4,1.61,13.31,3,20.62,1.43,7.55,3.11,14.53,4.9,20.9Z" transform="translate(-1367 -659.66)"/><path class="cls-1" d="M1547.21,890.27l-14.84,27.31,14.14,18.72c3.15-5.61,6.78-11.56,11-17.72,4.32-6.36,8.64-12.09,12.82-17.21Z" transform="translate(-1367 -659.66)"/><path class="cls-1" d="M1527.72,918.9l19.4-28.65,23.17,11.12c-4.07,5-8.27,10.54-12.47,16.69-4.33,6.35-8.08,12.48-11.31,18.24Z" transform="translate(-1367 -659.66)"/></g><g id="Livello_1" data-name="Livello 1"><path class="cls-3" d="M1776.08,1006.29c-91.31,26.92-171.36,132.91-173.9,317.91H2044.5c-2.57-185.07-82.6-291-173.89-317.92" transform="translate(-1367 -659.66)"/><path class="cls-4" d="M1880.61,1006.28a112.82,112.82,0,1,0-114.52,0" transform="translate(-1367 -659.66)"/><line class="cls-5" x1="399.09" y1="346.63" x2="513.6" y2="346.63"/><path class="cls-6" d="M1829.71,1056.12a383.22,383.22,0,0,0-28.6,37.79h0s-17.42,25.23-20.26,49.7a67.71,67.71,0,0,0,0,14.55c.24,1.74.59,3.54.59,3.54h0c.21,1,1.13,4.9,1.59,6.31a38.84,38.84,0,0,0,1.74,4.39c.23.49,4,6.28,4,6.28s-.14-5.7-.3-6.68h0c0-6.09.07-10.83.09-11.41.09-4.33,1.59-13.74,3.67-21,2.7-9.39,7.31-18.27,20-36.71,6.41-9.35,14.89-21.17,25.46-34.52Z" transform="translate(-1367 -659.66)"/><path class="cls-6" d="M1817,1274.36a383.62,383.62,0,0,0,28.6-37.79h0s17.42-25.22,20.27-49.69a68.53,68.53,0,0,0,0-14.56c-.24-1.74-.59-3.54-.59-3.54h0c-.21-1.06-1.13-4.9-1.59-6.31a38.39,38.39,0,0,0-1.74-4.4c-.23-.49-4-6.28-4-6.28s.13,5.71.3,6.69h0c0,6.08-.08,10.82-.09,11.4a102.12,102.12,0,0,1-3.67,21c-2.71,9.39-7.32,18.27-20,36.71-6.41,9.36-14.89,21.17-25.46,34.52Z" transform="translate(-1367 -659.66)"/><path class="cls-6" d="M1840.13,1074.85a384.81,384.81,0,0,0-28.6,37.79h0s-17.43,25.22-20.27,49.7a67.69,67.69,0,0,0,0,14.55c.24,1.74.59,3.54.59,3.54h0c.21,1.06,1.13,4.91,1.59,6.32a38.84,38.84,0,0,0,1.74,4.39c.23.49,4,6.28,4,6.28s-.13-5.71-.3-6.69h0c0-6.08.08-10.82.09-11.4.09-4.33,1.59-13.74,3.67-21,2.7-9.39,7.31-18.27,19.95-36.71,6.41-9.35,14.89-21.17,25.46-34.52Z" transform="translate(-1367 -659.66)"/><path class="cls-6" d="M1807.13,1255.43a386.42,386.42,0,0,0,28.6-37.79h0s17.42-25.23,20.27-49.7a68,68,0,0,0,0-14.55c-.24-1.74-.58-3.54-.58-3.54h0c-.21-1-1.12-4.9-1.59-6.31a38.84,38.84,0,0,0-1.74-4.39c-.23-.49-4-6.28-4-6.28s.14,5.71.31,6.69h0c0,6.08-.08,10.82-.09,11.4a103.62,103.62,0,0,1-3.67,21c-2.71,9.39-7.32,18.27-20,36.71-6.41,9.35-14.88,21.17-25.45,34.52Z" transform="translate(-1367 -659.66)"/><path class="cls-6" d="M1850.43,1093.93a386,386,0,0,0-28.6,37.79h0s-17.42,25.23-20.26,49.7a67.79,67.79,0,0,0,0,14.56c.24,1.73.59,3.54.59,3.54h0c.21,1,1.13,4.9,1.59,6.31a38.84,38.84,0,0,0,1.74,4.39c.23.49,4,6.29,4,6.29s-.13-5.71-.3-6.69h0c0-6.09.07-10.83.09-11.4a102,102,0,0,1,3.67-21c2.7-9.4,7.31-18.28,20-36.72,6.41-9.35,14.89-21.16,25.46-34.52Z" transform="translate(-1367 -659.66)"/><path class="cls-6" d="M1796.83,1236.5a386,386,0,0,0,28.6-37.79h0s17.42-25.23,20.27-49.7a68.53,68.53,0,0,0,0-14.56c-.24-1.73-.59-3.54-.59-3.54h0c-.21-1.05-1.13-4.9-1.59-6.31a40.46,40.46,0,0,0-1.75-4.39c-.23-.49-4-6.29-4-6.29s.14,5.71.31,6.69h0c0,6.09-.08,10.83-.09,11.4a103.39,103.39,0,0,1-3.67,21c-2.71,9.4-7.32,18.28-20,36.72-6.41,9.35-14.88,21.17-25.45,34.52Z" transform="translate(-1367 -659.66)"/><rect class="cls-7" x="135.7" y="458" width="283.64" height="202.73" rx="5.94"/><polygon class="cls-8" points="163.03 466.38 247.75 548.12 135.7 656.22 135.7 476.41 163.03 466.38"/><polygon class="cls-8" points="419.34 467.88 419.34 656.22 307.29 548.12 391.07 467.29 419.34 467.88"/><path class="cls-6" d="M1510.15,1319.24a4,4,0,0,1-2.92-6.74l103.9-111.45a4,4,0,1,1,5.85,5.46L1513.08,1318A4,4,0,0,1,1510.15,1319.24Z" transform="translate(-1367 -659.66)"/><path class="cls-6" d="M1778.88,1319.23A4,4,0,0,1,1776,1318l-103.89-111.45a4,4,0,1,1,5.85-5.46l103.9,111.45a4,4,0,0,1-2.93,6.73Z" transform="translate(-1367 -659.66)"/><path class="cls-9" d="M1644.52,1233.58a4.67,4.67,0,0,1-2.52-.74l-129.29-83.79a19.25,19.25,0,0,1,10.47-35.4h242.67a19.25,19.25,0,0,1,10.47,35.4l-129.25,83.77A4.69,4.69,0,0,1,1644.52,1233.58Z" transform="translate(-1367 -659.66)"/><path class="cls-10" d="M1773.71,1111a23.48,23.48,0,0,0-5.55-1.14c-.22,0-.44,0-.67-.06-.55,0-1.08-.12-1.64-.12H1523.18c-.56,0-1.09.09-1.64.12l-.66.06a23.84,23.84,0,0,0-5.58,1.15,29.41,29.41,0,0,0-20.61,28v160a29.39,29.39,0,0,0,29.36,29.36H1765a29.39,29.39,0,0,0,29.36-29.36V1139A29.41,29.41,0,0,0,1773.71,1111Zm-255.93,7.63a21.29,21.29,0,0,1,6.27-.95H1765a21.67,21.67,0,0,1,6.27.94c11,4,14,19.91,2.88,27.1l-129.25,83.77a.68.68,0,0,1-.74,0l-129.26-83.77C1503.8,1138.5,1506.8,1122.6,1517.78,1118.6ZM1765,1320.38H1524.05A21.35,21.35,0,0,1,1502.7,1299v-155a23.44,23.44,0,0,0,7.84,8.34l129.25,83.77a8.67,8.67,0,0,0,9.45,0l129.26-83.77a23.52,23.52,0,0,0,7.84-8.34v155A21.35,21.35,0,0,1,1765,1320.38Z" transform="translate(-1367 -659.66)"/></g></svg>